<svg id="Layer_3" data-name="Layer 3" xmlns="http://www.w3.org/2000/svg" xmlns:xlink="http://www.w3.org/1999/xlink" viewBox="0 0 1024 1024"><defs><style>.cls-1{fill:#400c4a;}.cls-2{fill:none;stroke-linecap:round;stroke-linejoin:round;stroke-width:35px;stroke:url(#linear-gradient);}</style><linearGradient id="linear-gradient" x1="517.03" y1="962.55" x2="517.03" y2="-1.55" gradientTransform="matrix(1, 0, 0, -1, -5.03, 992.5)" gradientUnits="userSpaceOnUse"><stop offset="0" stop-color="#a148aa"/><stop offset="0.5" stop-color="#dd743d"/><stop offset="0.77" stop-color="#f0be3a"/><stop offset="1" stop-color="#fff837"/></linearGradient></defs><title>Logo_2</title><rect class="cls-1" width="1024" height="1024"/><path id="Джойстик" class="cls-2" d="M77.81,754.91s0-164,164-164,164,164,164,164,6.07,164-164,164S77.81,754.91,77.81,754.91Zm710.49-164c-164,0-164,164-164,164s-6.07,164,164,164,164-164,164-164S952.26,590.94,788.3,590.94Zm-416,54.66H663.81M372.33,864.21H657.74M478.6,754.91H448.2m97.16,0h30.4m-416-24.3A27.34,27.34,0,1,0,187.11,758v0A27.33,27.33,0,0,0,159.79,730.61Zm157.89,0A27.34,27.34,0,1,0,345,758h0A27.33,27.33,0,0,0,317.68,730.61Zm-78.94-79A27.33,27.33,0,1,0,266.06,679v0A27.34,27.34,0,0,0,238.74,651.65Zm0,157.89a27.33,27.33,0,1,0,27.32,27.36,27.32,27.32,0,0,0-27.32-27.36h0ZM676,776.14h30.4l18.16-18.2L706.3,739.72H675.9Zm218.61-36.42h-30.4L846,757.94l18.22,18.22h30.4ZM767,679l18.22,18.26L803.48,679v-30.4H767Zm18.22,139.65L767,836.9v30.4h36.44V836.9Zm164-97.92,54.66-564s0-109.29-109.31-109.29S785.26,156.76,785.26,156.76L730.61,594M129.43,881.74l54.65,94.81H293.39L348,886.81M676,881.73l54.65,94.82H839.92l54.65-89.74M293.39,594,238.74,156.76s0-109.31-109.31-109.31S20.12,156.76,20.12,156.76L77.81,754.91"/></svg>