<svg id="Слой_1" data-name="Слой 1" xmlns="http://www.w3.org/2000/svg" xmlns:xlink="http://www.w3.org/1999/xlink" viewBox="0 0 1021.63 294"><defs><style>.cls-1,.cls-3{fill:none;stroke-linecap:round;stroke-linejoin:round;stroke-width:5px;}.cls-1{stroke:url(#Новый_образец_градиентной_залив);}.cls-2{fill:url(#Новый_образец_градиентной_залив-2);}.cls-3{stroke:url(#Безымянный_градиент_13);}</style><linearGradient id="Новый_образец_градиентной_залив" x1="959.69" y1="392.85" x2="959.69" y2="686.5" gradientUnits="userSpaceOnUse"><stop offset="0" stop-color="#bb6aff"/><stop offset="0.02" stop-color="#b86bff"/><stop offset="0.69" stop-color="#6195ff"/><stop offset="0.99" stop-color="#3fa6ff"/></linearGradient><linearGradient id="Новый_образец_градиентной_залив-2" x1="1171.24" y1="536.69" x2="1171.24" y2="685.48" xlink:href="#Новый_образец_градиентной_залив"/><linearGradient id="Безымянный_градиент_13" x1="635.76" y1="392.5" x2="635.76" y2="541.5" gradientUnits="userSpaceOnUse"><stop offset="0" stop-color="#bb6aff"/><stop offset="0.42" stop-color="#9b79ff"/><stop offset="0.99" stop-color="#728bff"/></linearGradient></defs><title>Пиктограммы 2, градиент</title><path class="cls-1" d="M451.37,395.43H487.5s36.12-5.27,36.12,72.24-36.12,72.25-36.12,72.25H451.37ZM898,468s0-72-72-72c0,0-72,0-72,72s72,72,72,72,72,0,72,72-72,72-72,72c-72,0-72-72-72-72m606,71s-72-67.5-72-72h36s36,0,36-36-36-36-36-36h-36V683m-246,1V396H970m498,143h-72v72h0v72h72" transform="translate(-448.87 -392.5)"/><path class="cls-2" d="M1240.31,633.2c2.21-11.11,5.57-36.66-4.47-57.78-1-2.13-3-4.6-6.43-4.64a66.62,66.62,0,0,0-14.76-18,2.18,2.18,0,0,0-2.83,3.32,62.5,62.5,0,0,1,13,15.44c-.32.15-3.67,2.28-5.32,3.32a56.05,56.05,0,0,0-96.51,0c-1.66-1-5-3.18-5.32-3.32A62.29,62.29,0,0,1,1203,549.8c.7.41,1.4.84,2.08,1.29a2.18,2.18,0,1,0,2.38-3.66h0a66.66,66.66,0,0,0-92.2,19.67c-.78,1.2-1.52,2.43-2.22,3.68-2.82-.27-5.42,2.49-6.43,4.64-10,21.12-6.64,46.67-4.46,57.78a17.52,17.52,0,0,0-2.78,19.91L1111,675.88a17.52,17.52,0,0,0,15.63,9.56c11.17,0,14.11-8.57,14.33-10.56l3-1.51a10.79,10.79,0,0,0,4.7-14.47l-13.4-26.27a10.78,10.78,0,0,0-14.46-4.69l-3,1.51a14,14,0,0,0-11.78.67c-5.13-28.1,1.34-46.21,4.55-52.81,1.45-3,4.72-2.2,5.67-1.58,1.73,1.12,3.85,2.49,6.27,4a3.91,3.91,0,0,1,1.57,4.7c-2.21,6-5.54,18.56-2.88,35.51a2.18,2.18,0,0,0,4.31-.67c-2.49-16,.59-27.74,2.65-33.33a8.27,8.27,0,0,0-1.66-8.47,51.71,51.71,0,0,1,89.45,0,8.38,8.38,0,0,0-1.66,8.48c2.56,6.92,6,21.33,1.09,40.91a10.78,10.78,0,0,0-8.16,5.81l-13.4,26.26a10.79,10.79,0,0,0,4.7,14.47l3,1.51c.27,2,2.8,10.56,14.34,10.56a17.52,17.52,0,0,0,15.63-9.55l11.61-22.78A17.53,17.53,0,0,0,1240.31,633.2Zm-109,1.42,13.4,26.27c2.93,6-4.23,9.35-4.23,9.35-.23-.71-18.78-37.08-19.22-37.68C1121.32,632.53,1127.72,628.49,1131.35,634.62ZM1109,633.45c4.75-2.49,8-.05,9.66,3.13l17,33.43c3.13,6.13-2.49,9.3-3.14,9.65a13.18,13.18,0,0,1-17.69-5.74l-11.62-22.78a13.21,13.21,0,0,1,5.74-17.73Zm117.24-57.74a3.77,3.77,0,0,1,5.66,1.59c3.15,6.63,9.68,24.7,4.56,52.8a13.41,13.41,0,0,0-11.78-.67s-4.22-2.07-4.86-2.25c5-20.36,1.29-35.46-1.42-42.76a3.91,3.91,0,0,1,1.57-4.7C1222.4,578.2,1224.5,576.81,1226.25,575.71Zm13,75.41-11.61,22.77a13.17,13.17,0,0,1-17.69,5.75c-.66-.35-6.28-3.51-3.15-9.65l1.08-2.11a2.18,2.18,0,0,0-3.88-2s-1.77,3.6-2,4.31c0,0-7.29-2.09-4.23-9.34l13.4-26.25c3.39-6.29,10-2.06,10-2.06-.44.6-13.27,25.64-13.27,25.64a2.19,2.19,0,1,0,3.8,2.16,1.3,1.3,0,0,0,.08-.17l12-23.61c3.14-6.15,9-3.46,9.66-3.13a13.17,13.17,0,0,1,5.72,17.66Z" transform="translate(-448.87 -392.5)"/><path id="Джойстик" class="cls-3" d="M568.47,504.65s0-25.41,25.41-25.41,25.41,25.41,25.41,25.41,1,25.41-25.41,25.41S568.47,504.65,568.47,504.65Zm110.12-25.41c-25.41,0-25.41,25.41-25.41,25.41s-.94,25.41,25.41,25.41S704,504.65,704,504.65,704,479.24,678.59,479.24Zm-64.47,8.47h45.17m-45.17,33.88h44.23m-27.76-16.94h-4.71m15.06,0h4.71m-64.47-3.77a4.24,4.24,0,1,0,4.23,4.24A4.24,4.24,0,0,0,581.18,500.88Zm24.47,0a4.24,4.24,0,1,0,4.23,4.24A4.24,4.24,0,0,0,605.65,500.88Zm-12.24-12.23a4.24,4.24,0,1,0,4.24,4.23A4.23,4.23,0,0,0,593.41,488.65Zm0,24.47a4.24,4.24,0,1,0,4.24,4.23A4.23,4.23,0,0,0,593.41,513.12Zm67.77-5.18h4.7l2.83-2.82-2.83-2.83h-4.7Zm33.88-5.65h-4.71l-2.82,2.83,2.82,2.82h4.71Zm-19.77-9.41,2.83,2.83,2.82-2.83v-4.7h-5.65Zm2.83,21.65-2.83,2.82v4.71h5.65v-4.71Zm25.41-15.18L712,411.94S712,395,695.06,395s-16.94,16.94-16.94,16.94l-8.47,67.77m-93.18,44.6L584.94,539h16.94l8.47-13.91m50.83-.79,8.47,14.7h16.94l8.47-13.91m-93.18-45.38-8.47-67.77s0-16.94-16.94-16.94-16.94,16.94-16.94,16.94l8.94,92.71" transform="translate(-448.87 -392.5)"/></svg>