<svg id="Слой_1" data-name="Слой 1" xmlns="http://www.w3.org/2000/svg" xmlns:xlink="http://www.w3.org/1999/xlink" width="1070.53" height="1013" viewBox="0 0 1070.53 1013">
  <defs>
    <style>
      .cls-1 {
        fill: none;
        stroke-linecap: round;
        stroke-linejoin: round;
        stroke-width: 35px;
        stroke: url(#Безымянный_градиент_20);
      }
    </style>
    <linearGradient id="Безымянный_градиент_20" data-name="Безымянный градиент 20" x1="540.29" y1="33.5" x2="540.29" y2="1046.5" gradientUnits="userSpaceOnUse">
      <stop offset="0" stop-color="#a148aa"/>
      <stop offset="0.5" stop-color="#dd743d"/>
      <stop offset="0.77" stop-color="#f0be3a"/>
      <stop offset="1" stop-color="#fff837"/>
    </linearGradient>
  </defs>
  <title>Буква Ю!</title>
  <path id="Джойстик" class="cls-1" d="M83.25,795.69s0-172.59,172.59-172.59S428.43,795.69,428.43,795.69s6.39,172.58-172.59,172.58S83.25,795.69,83.25,795.69ZM831.14,623.1c-172.59,0-172.59,172.59-172.59,172.59s-6.39,172.58,172.59,172.58,172.59-172.58,172.59-172.58S1003.73,623.1,831.14,623.1ZM393.27,680.63H700.1M393.27,910.75H693.71M505.14,795.69h-32m102.27,0h32M169.55,770.12a28.77,28.77,0,1,0,28.76,28.76A28.77,28.77,0,0,0,169.55,770.12Zm166.2,0a28.77,28.77,0,1,0,28.76,28.76A28.77,28.77,0,0,0,335.75,770.12ZM252.65,687a28.77,28.77,0,1,0,28.76,28.76A28.77,28.77,0,0,0,252.65,687Zm0,166.2A28.77,28.77,0,1,0,281.41,882,28.76,28.76,0,0,0,252.65,853.22Zm460.23-35.16h32L764,798.88l-19.18-19.17h-32ZM943,779.71H911l-19.18,19.17L911,818.06h32ZM808.76,715.78,827.94,735l19.18-19.18v-32H808.76Zm19.18,147L808.76,882v32h38.36V882Zm172.59-103.07,57.53-593.67S1058.06,51,943,51,827.94,166.06,827.94,166.06L770.41,626.29M137.59,929.2l57.53,99.8H310.18l57.53-94.46m345.17-5.35L770.41,1029H885.47L943,934.54M310.18,626.29,252.65,166.06S252.65,51,137.59,51,22.53,166.06,22.53,166.06L83.25,795.69" transform="translate(-5.03 -33.5)"/>
</svg>
